<svg width="341" height="78" viewBox="0 0 341 78" fill="none" xmlns="http://www.w3.org/2000/svg">
<path fill-rule="evenodd" clip-rule="evenodd" d="M23.5625 71.5C23.5625 70.8535 23.8193 70.2335 24.2764 69.7764C24.7335 69.3193 25.3535 69.0625 26 69.0625H52C52.6465 69.0625 53.2665 69.3193 53.7236 69.7764C54.1807 70.2335 54.4375 70.8535 54.4375 71.5C54.4375 72.1465 54.1807 72.7665 53.7236 73.2236C53.2665 73.6807 52.6465 73.9375 52 73.9375H26C25.3535 73.9375 24.7335 73.6807 24.2764 73.2236C23.8193 72.7665 23.5625 72.1465 23.5625 71.5ZM39 4.0625C39.6465 4.0625 40.2665 4.31931 40.7236 4.77643C41.1807 5.23355 41.4375 5.85353 41.4375 6.5V9.75C41.4375 10.3965 41.1807 11.0165 40.7236 11.4736C40.2665 11.9307 39.6465 12.1875 39 12.1875C38.3535 12.1875 37.7335 11.9307 37.2764 11.4736C36.8193 11.0165 36.5625 10.3965 36.5625 9.75V6.5C36.5625 5.85353 36.8193 5.23355 37.2764 4.77643C37.7335 4.31931 38.3535 4.0625 39 4.0625ZM4.0625 39C4.0625 38.3535 4.31931 37.7335 4.77643 37.2764C5.23355 36.8193 5.85353 36.5625 6.5 36.5625H9.75C10.3965 36.5625 11.0165 36.8193 11.4736 37.2764C11.9307 37.7335 12.1875 38.3535 12.1875 39C12.1875 39.6465 11.9307 40.2665 11.4736 40.7236C11.0165 41.1807 10.3965 41.4375 9.75 41.4375H6.5C5.85353 41.4375 5.23355 41.1807 4.77643 40.7236C4.31931 40.2665 4.0625 39.6465 4.0625 39ZM65.8125 39C65.8125 38.3535 66.0693 37.7335 66.5264 37.2764C66.9835 36.8193 67.6035 36.5625 68.25 36.5625H71.5C72.1465 36.5625 72.7665 36.8193 73.2236 37.2764C73.6807 37.7335 73.9375 38.3535 73.9375 39C73.9375 39.6465 73.6807 40.2665 73.2236 40.7236C72.7665 41.1807 72.1465 41.4375 71.5 41.4375H68.25C67.6035 41.4375 66.9835 41.1807 66.5264 40.7236C66.0693 40.2665 65.8125 39.6465 65.8125 39ZM19.7698 49.5625H6.5C5.85353 49.5625 5.23355 49.8193 4.77643 50.2764C4.31931 50.7335 4.0625 51.3535 4.0625 52C4.0625 52.6465 4.31931 53.2665 4.77643 53.7236C5.23355 54.1807 5.85353 54.4375 6.5 54.4375H71.5C72.1465 54.4375 72.7665 54.1807 73.2236 53.7236C73.6807 53.2665 73.9375 52.6465 73.9375 52C73.9375 51.3535 73.6807 50.7335 73.2236 50.2764C72.7665 49.8193 72.1465 49.5625 71.5 49.5625H19.7698Z" fill="black"></path>
<path opacity="0.5" d="M13.8124 61.75C13.8124 61.1035 14.0692 60.4835 14.5263 60.0264C14.9835 59.5693 15.6035 59.3125 16.2499 59.3125H61.7499C62.3964 59.3125 63.0164 59.5693 63.4735 60.0264C63.9306 60.4835 64.1874 61.1035 64.1874 61.75C64.1874 62.3965 63.9306 63.0164 63.4735 63.4736C63.0164 63.9307 62.3964 64.1875 61.7499 64.1875H16.2499C15.6035 64.1875 14.9835 63.9307 14.5263 63.4736C14.0692 63.0164 13.8124 62.3965 13.8124 61.75ZM14.2934 14.2935C14.5198 14.067 14.7886 13.8873 15.0844 13.7647C15.3802 13.6421 15.6973 13.579 16.0175 13.579C16.3378 13.579 16.6549 13.6421 16.9507 13.7647C17.2465 13.8873 17.5153 14.067 17.7417 14.2935L19.0189 15.5707C19.4495 16.0328 19.6839 16.644 19.6727 17.2754C19.6616 17.9069 19.4058 18.5094 18.9592 18.956C18.5126 19.4026 17.9101 19.6584 17.2786 19.6696C16.6471 19.6807 16.036 19.4463 15.5739 19.0157L14.2934 17.7417C13.837 17.2847 13.5806 16.6652 13.5806 16.0192C13.5806 15.3733 13.837 14.7538 14.2934 14.2967M63.6999 14.2967C64.1564 14.7538 64.4128 15.3733 64.4128 16.0192C64.4128 16.6652 64.1564 17.2847 63.6999 17.7417L62.4259 19.019C61.9639 19.4496 61.3527 19.6839 60.7212 19.6728C60.0897 19.6617 59.4872 19.4059 59.0407 18.9593C58.5941 18.5127 58.3382 17.9102 58.3271 17.2787C58.316 16.6472 58.5504 16.0361 58.9809 15.574L60.2549 14.2967C60.712 13.8403 61.3315 13.5839 61.9774 13.5839C62.6234 13.5839 63.2429 13.8403 63.6999 14.2967ZM17.0624 39C17.0624 42.8285 18.0439 46.4295 19.7697 49.5625H58.2302C59.8398 46.6305 60.7576 43.3693 60.9136 40.0281C61.0695 36.687 60.4594 33.3545 59.1298 30.2853C57.8003 27.2161 55.7865 24.4916 53.2426 22.3201C50.6986 20.1485 47.6917 18.5875 44.4519 17.7562C41.2121 16.925 37.8251 16.8455 34.5498 17.524C31.2746 18.2025 28.1979 19.621 25.5549 21.6709C22.912 23.7208 20.7727 26.348 19.3008 29.3515C17.8289 32.3549 17.0633 35.6552 17.0624 39Z" fill="#C002B2"></path>
<path d="M233.16 76.4C232.173 76.4 231.427 76.16 230.92 75.68C230.44 75.1733 230.2 74.4133 230.2 73.4V51.72L234.2 50.72V73.04C234.573 73.0667 234.973 73.1067 235.4 73.16C235.827 73.1867 236.373 73.2133 237.04 73.24L236.8 75.96C235.973 76.12 235.267 76.2267 234.68 76.28C234.093 76.36 233.587 76.4 233.16 76.4ZM227.4 58.76V56H237.76V58.76H227.4Z" fill="black"></path>
<path d="M207.153 76V56H208.993L210.073 58C211.087 57.1733 212.193 56.5733 213.393 56.2C214.593 55.8 215.967 55.6 217.513 55.6C219.38 55.6 220.793 55.8933 221.753 56.48C222.713 57.04 223.193 57.88 223.193 59V76H219.193V58.88H214.553C213.247 58.88 212.353 59.04 211.873 59.36C211.393 59.68 211.153 60.2933 211.153 61.2V76H207.153Z" fill="black"></path>
<path d="M191.276 76.4C189.09 76.4 187.516 75.9467 186.556 75.04C185.623 74.1067 185.156 72.56 185.156 70.4C185.156 69.0133 185.29 67.9067 185.556 67.08C185.823 66.2267 186.343 65.5867 187.116 65.16C187.916 64.7067 189.09 64.4133 190.636 64.28C192.183 64.12 194.223 64.04 196.756 64.04H198.556V66.64H192.036C190.783 66.64 189.93 66.8 189.476 67.12C189.023 67.44 188.796 68.0533 188.796 68.96V73.32H194.156C195.41 73.32 196.25 73.16 196.676 72.84C197.13 72.52 197.356 71.9067 197.356 71V59.2C196.37 58.9067 195.023 58.76 193.316 58.76C192.276 58.76 191.183 58.84 190.036 59C188.89 59.16 187.73 59.4 186.556 59.72L186.036 56.8C186.703 56.56 187.476 56.3467 188.356 56.16C189.236 55.9733 190.17 55.84 191.156 55.76C192.143 55.6533 193.09 55.6 193.996 55.6C195.81 55.6 197.25 55.7867 198.316 56.16C199.41 56.5067 200.183 57.0933 200.636 57.92C201.116 58.72 201.356 59.8133 201.356 61.2V76H199.516L198.436 74C197.476 74.8267 196.41 75.44 195.236 75.84C194.09 76.2133 192.77 76.4 191.276 76.4Z" fill="black"></path>
<path d="M177.776 76.4C176.789 76.4 176.042 76.16 175.536 75.68C175.056 75.1733 174.816 74.4133 174.816 73.4V51.72L178.816 50.72V73.04C179.189 73.0667 179.589 73.1067 180.016 73.16C180.442 73.1867 180.989 73.2133 181.656 73.24L181.416 75.96C180.589 76.12 179.882 76.2267 179.296 76.28C178.709 76.36 178.202 76.4 177.776 76.4ZM172.016 58.76V56H182.376V58.76H172.016Z" fill="black"></path>
<path d="M154.198 61.36C154.198 59.3067 154.811 57.8 156.038 56.84C157.264 55.88 159.171 55.4 161.758 55.4C162.958 55.4 164.091 55.48 165.158 55.64C166.251 55.7733 167.331 55.9867 168.398 56.28L167.838 59.2C167.171 59.0133 166.384 58.8667 165.478 58.76C164.598 58.6267 163.758 58.56 162.958 58.56C162.104 58.56 161.278 58.6 160.478 58.68C159.704 58.7333 159.011 58.8133 158.398 58.92V63.64C160.718 63.96 162.598 64.2933 164.038 64.64C165.478 64.96 166.584 65.36 167.358 65.84C168.131 66.32 168.664 66.92 168.958 67.64C169.251 68.36 169.398 69.2667 169.398 70.36C169.398 71.8533 169.118 73.0667 168.558 74C168.024 74.9067 167.144 75.5733 165.918 76C164.691 76.4 163.051 76.6 160.998 76.6C159.824 76.6 158.638 76.4933 157.438 76.28C156.238 76.0933 155.011 75.8133 153.758 75.44L154.398 72.24C156.451 73.04 158.638 73.44 160.958 73.44C161.758 73.44 162.451 73.4 163.038 73.32C163.651 73.24 164.371 73.0933 165.198 72.88V68.16C162.744 67.8133 160.784 67.48 159.318 67.16C157.851 66.84 156.744 66.4533 155.998 66C155.278 65.52 154.798 64.92 154.558 64.2C154.318 63.4533 154.198 62.5067 154.198 61.36Z" fill="black"></path>
<path d="M145.547 56.28L149.547 55.68V76H145.547V56.28ZM147.587 52.52C146.6 52.52 145.934 52.36 145.587 52.04C145.267 51.6933 145.107 51.0533 145.107 50.12C145.107 49.16 145.28 48.5067 145.627 48.16C145.974 47.8133 146.627 47.64 147.587 47.64C148.52 47.64 149.147 47.8133 149.467 48.16C149.814 48.5067 149.987 49.16 149.987 50.12C149.987 51.0533 149.827 51.6933 149.507 52.04C149.187 52.36 148.547 52.52 147.587 52.52Z" fill="black"></path>
<path d="M126.129 61.36C126.129 59.3067 126.742 57.8 127.969 56.84C129.196 55.88 131.102 55.4 133.689 55.4C134.889 55.4 136.022 55.48 137.089 55.64C138.182 55.7733 139.262 55.9867 140.329 56.28L139.769 59.2C139.102 59.0133 138.316 58.8667 137.409 58.76C136.529 58.6267 135.689 58.56 134.889 58.56C134.036 58.56 133.209 58.6 132.409 58.68C131.636 58.7333 130.942 58.8133 130.329 58.92V63.64C132.649 63.96 134.529 64.2933 135.969 64.64C137.409 64.96 138.516 65.36 139.289 65.84C140.062 66.32 140.596 66.92 140.889 67.64C141.182 68.36 141.329 69.2667 141.329 70.36C141.329 71.8533 141.049 73.0667 140.489 74C139.956 74.9067 139.076 75.5733 137.849 76C136.622 76.4 134.982 76.6 132.929 76.6C131.756 76.6 130.569 76.4933 129.369 76.28C128.169 76.0933 126.942 75.8133 125.689 75.44L126.329 72.24C128.382 73.04 130.569 73.44 132.889 73.44C133.689 73.44 134.382 73.4 134.969 73.32C135.582 73.24 136.302 73.0933 137.129 72.88V68.16C134.676 67.8133 132.716 67.48 131.249 67.16C129.782 66.84 128.676 66.4533 127.929 66C127.209 65.52 126.729 64.92 126.489 64.2C126.249 63.4533 126.129 62.5067 126.129 61.36Z" fill="black"></path>
<path d="M108.071 61.36C108.071 59.3067 108.685 57.8 109.911 56.84C111.138 55.88 113.045 55.4 115.631 55.4C116.831 55.4 117.965 55.48 119.031 55.64C120.125 55.7733 121.205 55.9867 122.271 56.28L121.711 59.2C121.045 59.0133 120.258 58.8667 119.351 58.76C118.471 58.6267 117.631 58.56 116.831 58.56C115.978 58.56 115.151 58.6 114.351 58.68C113.578 58.7333 112.885 58.8133 112.271 58.92V63.64C114.591 63.96 116.471 64.2933 117.911 64.64C119.351 64.96 120.458 65.36 121.231 65.84C122.005 66.32 122.538 66.92 122.831 67.64C123.125 68.36 123.271 69.2667 123.271 70.36C123.271 71.8533 122.991 73.0667 122.431 74C121.898 74.9067 121.018 75.5733 119.791 76C118.565 76.4 116.925 76.6 114.871 76.6C113.698 76.6 112.511 76.4933 111.311 76.28C110.111 76.0933 108.885 75.8133 107.631 75.44L108.271 72.24C110.325 73.04 112.511 73.44 114.831 73.44C115.631 73.44 116.325 73.4 116.911 73.32C117.525 73.24 118.245 73.0933 119.071 72.88V68.16C116.618 67.8133 114.658 67.48 113.191 67.16C111.725 66.84 110.618 66.4533 109.871 66C109.151 65.52 108.671 64.92 108.431 64.2C108.191 63.4533 108.071 62.5067 108.071 61.36Z" fill="black"></path>
<path d="M85.6001 76L93.0001 51H99.0401L106.44 76H102.44L96.2001 54.68H95.8401L89.6001 76H85.6001ZM89.2801 70.4V67.24H102.84V70.4H89.2801Z" fill="black"></path>
<path d="M337.625 1.44V34.848C338.991 35.104 340.036 35.2533 340.761 35.296L340.185 44.704C334.724 44.704 331.119 44.384 329.369 43.744C327.193 42.9333 325.849 41.9093 325.337 40.672C324.996 39.904 324.825 39.008 324.825 37.984V2.4L337.625 1.44Z" fill="black"></path>
<path d="M317.875 1.44V34.848C319.241 35.104 320.286 35.2533 321.011 35.296L320.435 44.704C314.974 44.704 311.369 44.384 309.619 43.744C307.443 42.9333 306.099 41.9093 305.587 40.672C305.246 39.904 305.075 39.008 305.075 37.984V2.4L317.875 1.44Z" fill="black"></path>
<path d="M270.013 40.8C267.368 37.984 266.045 33.7173 266.045 28C266.045 22.2827 267.368 18.0373 270.013 15.264C272.701 12.448 277.032 11.04 283.005 11.04C288.978 11.04 293.288 12.448 295.933 15.264C298.621 18.0373 299.965 22.2827 299.965 28C299.965 33.7173 298.621 37.984 295.933 40.8C293.288 43.5733 288.978 44.96 283.005 44.96C277.032 44.96 272.701 43.5733 270.013 40.8ZM279.805 23.072V35.616H281.789C283.325 35.616 284.434 35.4667 285.117 35.168C285.842 34.8267 286.205 34.08 286.205 32.928V20.384H284.221C282.685 20.384 281.554 20.5547 280.829 20.896C280.146 21.1947 279.805 21.92 279.805 23.072Z" fill="black"></path>
<path d="M236.646 13.28C239.419 11.7867 243.195 11.04 247.974 11.04C252.752 11.04 257.147 11.7013 261.158 13.024L259.686 21.728C256.358 20.7893 253.03 20.32 249.702 20.32C248.678 20.32 247.227 20.4053 245.35 20.576V22.624C252.262 22.624 256.955 23.648 259.43 25.696C260.667 26.72 261.542 27.8507 262.054 29.088C262.566 30.2827 262.822 31.7547 262.822 33.504C262.822 35.2107 262.608 36.7467 262.182 38.112C261.798 39.4773 261.179 40.5653 260.326 41.376C259.515 42.1867 258.662 42.848 257.766 43.36C256.87 43.872 255.696 44.2347 254.246 44.448C251.984 44.7893 249.36 44.96 246.374 44.96C241.083 44.96 236.304 44.3413 232.038 43.104L233.638 34.016C237.222 35.1253 241.104 35.68 245.286 35.68C247.206 35.68 248.955 35.5947 250.534 35.424V33.376C243.707 33.376 238.992 32.48 236.39 30.688C233.83 28.896 232.55 25.9307 232.55 21.792C232.55 17.6107 233.915 14.7733 236.646 13.28Z" fill="black"></path>
<path d="M204.355 40.672L197.188 12H209.988L213.508 32.8H214.148L217.667 12H230.467L222.467 44C221.273 48.1813 219.78 50.976 217.988 52.384C216.196 53.8347 213.614 54.56 210.243 54.56H197.827V46.24L203.843 45.088C206.915 44.4053 208.921 43.6373 209.859 42.784C210.371 42.3147 210.798 41.7387 211.14 41.056L211.076 40.672H204.355Z" fill="black"></path>
<path d="M176.388 12H182.788L186.308 15.584C188.825 13.28 191.982 11.7653 195.78 11.04L196.548 23.136C195.524 23.1787 194.18 23.4347 192.516 23.904C190.894 24.3733 189.785 24.9707 189.188 25.696V44H176.388V12Z" fill="black"></path>
<path d="M155.243 11.04C165.483 11.04 170.603 14.56 170.603 21.6V44H164.203L160.555 40.352C159.318 41.8027 157.632 42.9333 155.499 43.744C153.366 44.5547 151.339 44.96 149.419 44.96C147.542 44.96 146.027 44.8107 144.875 44.512C143.723 44.2133 142.592 43.7013 141.483 42.976C139.051 41.44 137.835 38.5813 137.835 34.4C137.835 26.72 143.638 22.88 155.243 22.88H157.803V20.576C156.438 20.4907 155.307 20.448 154.411 20.448C149.59 20.448 145.451 21.024 141.995 22.176L140.459 13.024C144.726 11.7013 149.654 11.04 155.243 11.04ZM150.763 32.992V35.616H153.387C155.264 35.616 156.459 35.4027 156.971 34.976C157.526 34.5493 157.803 33.9947 157.803 33.312V30.304H155.179C153.643 30.304 152.512 30.4747 151.787 30.816C151.104 31.1147 150.763 31.84 150.763 32.992Z" fill="black"></path>
<path d="M99.9761 44H86.6001L89.0321 4H105.736L110.728 24.352H111.176L116.168 4H132.872L135.304 44H121.928L121.16 24.608H120.712L115.848 44H106.056L101.128 24.608H100.744L99.9761 44Z" fill="black"></path>
</svg>